<svg id="Camada_1" data-name="Camada 1" xmlns="http://www.w3.org/2000/svg" viewBox="0 0 595.28 841.89"><defs><style>.cls-1{fill:#fff;}.cls-2{fill:#161518;}.cls-3{fill:#0d0c0f;}</style></defs><path class="cls-1" d="M574.32,276.25q0,276.33.06,552.68c0,2.3-.52,2.82-2.82,2.82q-273.93-.09-547.84,0c-2.3,0-2.82-.52-2.82-2.82q.09-408,0-816c0-2.3.52-2.82,2.82-2.82q136.8.11,273.61.06c.21.18.62.4.59.55-1,5.92-2.08,11.82-3,17.74-.25,1.58-.77,1.62-1.95.85-1.67-1.1-3.41-2.1-5.85-3.58,1,2.49,1.66,4.3,2.53,6S290,34,288.33,34.5c-3.74,1.16-7.43,2.51-11.88,4,4.42,1.53,8,2.92,11.68,4,2.12.61,2.25,1.45,1.33,3.19-.82,1.56-1.37,3.27-2.35,5.65C289.43,49.92,291,49,292.53,48S294.66,46.9,295,49c.77,5.49,1.78,10.95,2.69,16.43.86-.18.77-.65.83-1,.84-5.14,1.77-10.26,2.47-15.42.27-2,.85-2.15,2.38-1.07s3.15,2,4.73,2.93a10.38,10.38,0,0,0-1.39-4.56c-1.53-2.5-.59-3.45,1.94-4.14,3.41-.93,6.72-2.23,10.9-3.65-4.6-1.57-8.23-2.89-11.92-4-1.63-.5-2.2-1.08-1.31-2.76s1.49-3.48,2.56-6c-2.39,1.47-4,2.41-5.6,3.48-1.4.95-2,.91-2.27-1-.71-5.05-1.71-10.07-2.36-15.13-.11-.87-1.73-1.92-.05-2.85q136.5,0,273-.06c2.3,0,2.82.52,2.82,2.82q-.11,131.34-.06,262.67c-4-1.33-8-2.75-12-4-1.65-.49-1.77-1.1-1.12-2.59.76-1.74,1.88-3.43,1.94-5.71-1.74,1.07-3.28,1.9-4.68,2.91-1.72,1.24-2.32.86-2.61-1.22-.77-5.4-1.74-10.78-2.64-16.25-1.08.59-.86,1.51-1,2.27-.81,4.74-1.71,9.46-2.33,14.22-.29,2.18-1,2-2.42,1s-3.15-2-5.45-3.38c1.05,2.51,1.63,4.24,2.48,5.84s.63,2.42-1.25,3c-3.76,1.14-7.46,2.5-11.89,4,3,1,5.2,1.74,7.39,2.52s5.12,1,6,2.52-1.35,3.93-2,6c-.13.38-.39.72,0,1.17,2.37-.9,4.21-3,6.78-3.61,1.07,6.27,2.09,12.35,3.12,18.43l.55-.08c1-6.12,2-12.23,3.13-18.66l7.4,4.42c-1.06-2.56-1.83-4.4-2.58-6.24-.29-.71-1-1.6.26-2C565.74,279,569.8,276.88,574.32,276.25ZM284.2,436.85c-5.31-4.66-11.22-8.13-18.26-9.48-21.86-4.2-47.06,7.08-58.94,26.4-6,9.79-10.08,20.52-14.6,31-2.5,5.82-5,11.64-8.58,16.93-2.2,3.26-4.73,6.2-8.42,7.84-5.28,2.35-8.56.94-10.78-4.35-.67-1.6-.59-3.58-2.18-4.86-3.9,8.29,1.41,16.56,10.22,16.12,4.78-.24,8.46-2.82,11.79-6,5-4.68,8.65-10.34,12.05-16.2,2.19-3.79,4.29-7.64,6.63-11.83.63,1.93,1,3.48,1.64,4.95,1.83,4.49,4.37,8.41,9.24,10.05a9.89,9.89,0,0,0,10-2.16c2.24-1.94,3.22-4.5,2.36-8-1.76,2.28-3.19,4.26-5.87,4.63a8.74,8.74,0,0,1-9.74-5.3,27.31,27.31,0,0,1-1.52-19.48c4.39-15.9,15.86-24.39,31-28.81.25-.08.56.08,1,.15-.62,2.12-1.21,4.16-1.82,6.2-3.75,12.4-3,24.06,5.64,34.42.26.31.46.68.7,1,2.91,3.88,3.15,8,1.47,12.49-.4,1.06-1.37,2.07-.78,3.63a12.16,12.16,0,0,0,6.8-10.26c.49-5.33-1.26-10-4.08-14.48-5.54-8.77-5.35-18.22-2.82-27.82,1.06-4.07,3.77-7,8-7.51,10.85-1.28,23.51,2,28.38,16.11,2.38,6.92,2.47,14,2.2,21.23-.4,10.64-.85,21.28-1,31.93-.82,48.12-.52,96.25-1.94,144.37-.79,26.8-1.86,53.59-5.44,80.23-2.2,16.36-7.82,30.79-20.56,42-11.8,10.33-24.55,18-40.89,18.81a206.14,206.14,0,0,0-28.92,3.45c-11.52,2.21-22.6,5.64-32.42,12.33-4.1,2.8-7.72,6.12-9.74,10.8-2.41,5.58-.33,10.76,5.31,13.09,3.67,1.51,7.08.57,10-2,2.61-2.3,3.92-5.16,2.74-8.82-1.23.63-1.11,2-1.89,2.81a7.51,7.51,0,0,1-2.66,2c-2.91,1.1-4,.41-4.24-2.61a9,9,0,0,1,2.58-7,24.94,24.94,0,0,1,8.07-5.48c14.21-6.44,29.3-8.41,45.51-9-3,2.31-5.44,4.1-7.78,6-3.2,2.6-6.19,5.38-7.58,9.44-1.58,4.63-.46,10.51,2.46,12.87,2.73,2.21,8.76,2.18,12.54-.07,3.16-1.88,4.15-4.65,2.72-7.6a5.52,5.52,0,0,1-7.2,2.33c-2.21-1.19-2.74-3.8-1.36-6.71a17.3,17.3,0,0,1,7.73-7.66c10.93-6,22.89-6.7,35.71-6.95-2.54,3-4.69,5.44-6.67,8-3.51,4.48-3.32,13.15.29,17.54a9.1,9.1,0,0,0,11.41,2.06c3.27-2,4.83-6.63,3.24-9.93a13.13,13.13,0,0,1-.73,1.76c-1.12,1.89-2.49,4-4.94,3.25-2.29-.7-2.33-3.16-2.16-5.24a15.85,15.85,0,0,1,5.8-10.8,37.16,37.16,0,0,1,13.44-7.16c13.36-4.31,27.12-4.9,41-4.06,8.79.53,17.47,1.94,25.72,5.28,4.59,1.86,8.87,4.22,12.14,8.07a14.19,14.19,0,0,1,3.71,10.42c-.1,1.44-.53,3-2,3.52-1.7.61-3-.5-4-1.71a33.32,33.32,0,0,1-2.3-3.68c-.72,6.37,1.68,10.3,6.51,11.27s9.27-1.9,10.72-7.34,1.07-10.72-3.26-15.1a21.47,21.47,0,0,1-4.68-6,81.57,81.57,0,0,1,13.74.66c7.75.93,15.36,2.43,22.14,6.61,3.46,2.14,6.46,4.75,7.62,8.86a4.11,4.11,0,0,1-3.92,5.54c-2.3.15-4.36-.24-5.27-3-1.19,3.29-.45,5.67,2.17,7.48a13.35,13.35,0,0,0,7.58,2.07c4.78.06,7.7-2.44,8.44-7.13a14.6,14.6,0,0,0-3.89-13,71.41,71.41,0,0,0-9.66-8c-.55-.42-1.55-.58-1.35-1.73,13.91.41,27.53,2.26,40.59,7.21a33.26,33.26,0,0,1,11.6,6.71,9.17,9.17,0,0,1,3.08,7.69c-.23,2.72-1.22,3.34-3.86,2.57s-3.48-2.91-4.84-5.28c-1.24,4,.1,6.8,2.63,9.14,2.91,2.68,7.42,3.46,10.54,1.7,3.34-1.88,6-4.4,5.73-8.68-.37-5.18-3.41-8.9-7.1-12.12-6.84-6-15-9.37-23.55-12.12-13.86-4.45-28.35-4.89-42.62-6.77-6.78-.89-13.74-1.27-19.89-4.61A105.53,105.53,0,0,1,341.12,773c-10.47-9.07-17.45-20.13-20.07-33.9a287.84,287.84,0,0,1-4-29.48c-2.56-29.91-3.24-59.9-3.79-89.9-.84-45.76-.46-91.55-1.83-137.3-.23-7.66-1.09-15.3-.05-23,2-14.94,11.46-23.44,26.5-23.5,7.12,0,10.84,2.79,12.29,9.83,1.94,9.39,1.6,18.51-4,26.84a20.61,20.61,0,0,0-3.43,14c.45,4.45,3.51,8.44,7.38,9.28-3.36-6.23-3.35-12,1.24-17.52,7.72-9.3,8.78-19.94,5.78-31.27-.76-2.88-1.59-5.75-2.41-8.73,16.08,1.68,32.12,18.67,32.85,34.52.23,5.07-.25,10.05-2.88,14.54-3.44,5.89-10.17,6.26-14.3.86a.83.83,0,0,0-1-.38c-.51,4.74,1.75,8.23,6.17,9.52,5.19,1.52,9.68-.3,13.18-5.31,1.95-2.79,2.85-6,4.07-9.6,1.7,3.09,3.21,5.85,4.76,8.6,3.83,6.78,7.81,13.46,13.42,19,2.89,2.83,6.09,5.16,10.1,6.12,4.71,1.13,9.24-.34,11.55-3.71s2.7-9,.66-12c-1,.73-1,2-1.4,3s-.75,2.12-1.25,3.13c-1.66,3.35-3.49,4.34-7.15,3.84-4.13-.57-7-3.1-9.55-6.18-3.71-4.56-6.19-9.84-8.58-15.17-4.48-10-8.36-20.19-13.35-29.94-7.77-15.15-20.07-25-36-30.06-15.26-4.84-30.1-4.14-43.08,6.85-.55.46-1.06,1-2,.56a92.1,92.1,0,0,1,7-12.4c11.69-16.8,28.06-22.66,47.82-20.14,9.23,1.18,18.16,3.9,27.21,6a53.54,53.54,0,0,1,25.43,13.42,214.69,214.69,0,0,1,16.3,17.95c10,12,20.19,23.7,33.13,32.67a7.21,7.21,0,0,1,2.71,3.63,41.33,41.33,0,0,1,1.12,21.8c-.79,4-5.52,5.75-9.06,3.86-1.26-.67-1.9-2-3-3-.95,3.84.87,6.47,4.68,7.06,6.85,1.07,13.93-4.37,16-12.33,1.43-5.5.69-10.94-.64-16.28a2,2,0,0,1,1.86-.21c7.65,1.18,14.86-.39,21.77-3.58,4.17-1.92,8.22-4.11,12.38-6.07,3.56-1.68,7.31-2.82,11.28-2.19,4.69.75,8.55,3,10.51,7.5,1.86,4.29-1.17,7.12-3.54,10-1,1.24-2.12,2.39-3.31,3.73,6.55.9,13.54-4.06,14.13-10.18,1-10.34-2.15-16.23-11-18.43-1.94-.48-1.73-1.23-.9-2.67a27.54,27.54,0,0,0,3.28-17.19c-.3-2.68-.6-5.47-3-7.95-2.77,10.61-4.22,21.48-14.4,28A51.55,51.55,0,0,1,487.91,468c1.1-.83,1.57-1.19,2.06-1.54,13.12-9.65,18.89-22.24,16.28-38.68-2.92-18.43.87-35.36,12.63-50.2.07-.09,0-.33-.14-.94-7.46,4.23-12,10.71-15.69,18s-5.51,15-6.87,23c-1.75-.74-3.21-1.47-4.74-2-5.55-1.89-9.77-.21-12.57,5-.48.89-1.17,1.94-.43,2.85.95,1.17,1.84-.09,2.65-.48a11,11,0,0,1,14.8,4.51c6.61,11.42-.53,28.33-13.36,31.32-8,1.87-15.4-.08-22.32-4.22-6.52-3.9-11.55-9.41-16.34-15.18-8.26-9.93-15-21.19-26-29.25,6.87-2.35,13.34-4.5,19.76-6.75,12.45-4.37,24.39-9.7,33.48-19.7,14.15-15.56,23.58-33.54,27-54.44.95-5.75,1.65-11.54,2.54-17.3,2.13-13.88,10.65-22.8,22.59-29.08,1-.55,2.55-.57,3.2-2.28-6.89,0-12.3,2.93-17.2,7-9.89,8.12-15,18.89-17.26,31.27-2,11.16-4.18,22.31-9.08,32.68-.36.76-.42,1.77-1.53,2.15a67.1,67.1,0,0,0-.16-8c-1-8-4.18-15.34-7.39-22.64-3.49-7.95-7.2-15.82-9.2-24.33-1.78-7.62-2.29-15.2,1-22.57,2.68-6,6.69-6.95,11.77-2.93.5.39.93.87,1.6.47s.61-1,.54-1.63c-.65-5.91-7.76-9.72-13-7-4.06,2.14-6.24,5.77-7.72,9.92-2,5.6-2.12,11.41-2.11,17.27a51.37,51.37,0,0,0,2.6,14.84c-1.32-.23-2.21-.39-3.11-.53-10.36-1.59-18.7,3.66-21.09,13.22-1.14,4.56-.74,8.74,2.83,12.18.77.74,1.51,2.2,2.69,1.55s.07-1.83-.14-2.77c-2.12-9.69,4-17.91,12.64-16.89A15,15,0,0,1,464,320.64c7.34,10.9,10.3,23.18,7.87,35.93-3,15.74-13.58,25.94-27.73,32.6a52.21,52.21,0,0,1-15.28,4.67c2.34-3.83,4.29-7.38,4.84-11.51a27.78,27.78,0,0,0-5.13-20c-3.72-5.4-7.34-10.91-8.41-17.56a54.24,54.24,0,0,1,5.5-34.91,17.56,17.56,0,0,0-9.06,7.46c-6,9.33-7.25,19.67-5.43,30.36.44,2.6.18,3.91-1.91,5.51-5.15,3.94-6.67,10-4.11,14.78.57-.15.7-.67,1-1.1,2.58-4.26,6.08-5.88,10.86-5.05,4.4.77,7,3.43,8,8.19a24.81,24.81,0,0,1-16.45,28.45,39.49,39.49,0,0,1-22.39.35c-8.81-2.23-17.5-5-26.64-5.73-18.37-1.43-33.77,5.39-47.41,17.1-.78.66-1.37,1.66-2.69,1.87.1-1.12.13-2,.28-2.94.38-2.32.77-4.64,1.22-6.95,3.45-17.59,12.57-31.09,28.59-39.59,4.24-2.25,8.47-4.52,12.79-6.61a215.07,215.07,0,0,0,33.4-20.5c18.52-13.62,29.12-32,33.61-54.19,1.48-7.31,1.7-14.82,3.26-22.15,2.38-11.08,6-21.63,12.11-31.27,1.76-2.79,3.55-5.66,3.28-9.24-1.34-.15-1.88.75-2.41,1.41-10,12.38-17.86,25.92-22,41.36-2,7.39-2,15.21-4.32,22.57-1.47,4.56-3.21,8.94-6.8,12.83-2-7.11-6.08-12.81-9.59-18.79a46.68,46.68,0,0,1-6.36-24c0-7.29,2.6-14,4.56-20.89,2.08-7.27,3.52-14.5,1.55-22a45.87,45.87,0,0,0-5.77-13.79c-.69-1.06-1.4-2.95-2.72-2.48s-.55,2.32-.42,3.56c.16,1.42.49,2.82.75,4.22,1.75,9.3,3.09,18.68.88,28-2.31,9.81-4.41,8.63-10.71,5.88a17.24,17.24,0,0,0-20.71,5.27,23.41,23.41,0,0,0-4.22,19.47c.29,1.41.62,2.93,2.42,3.8.17-1.85.39-3.47.46-5.09a23.23,23.23,0,0,1,2-9.22c2.5-5.2,8.05-7.8,14.48-6.82,5.87.89,8.57,3.83,9.55,10.24a33.54,33.54,0,0,1,.44,7.34c-.38,5.6,1.13,10.72,3.56,15.66,2.17,4.4,4.37,8.79,6.4,13.25,7.94,17.41,5.76,26.54-9.18,38.54-8,6.43-16.9,11.5-25.92,16.33-14.41,7.71-29.16,14.85-42.23,24.85a2.43,2.43,0,0,1-.88.24,3.68,3.68,0,0,1-.26-.88c0-.92,0-1.84,0-2.76A160.25,160.25,0,0,1,316,331c2.49-9.1,5.57-18,11.33-25.65,3-4,6.6-7.25,11.7-8.4,5.47-1.24,9.35.67,11.05,6,2,6.28,2.44,12.62-.57,18.83-1.12,2.31-2.42,4.61-2.65,7.3,1.45.26,2.13-.65,2.83-1.3a31.4,31.4,0,0,0,9.51-16.15c2.64-11.84-4.66-23.34-16-25.24-7.12-1.2-13.07,1.43-18.21,6.15-6.47,5.93-10.65,13.4-14.15,21.32-.68,1.52-1.34,3.05-2,4.57A117.33,117.33,0,0,1,313,284.11c5-18.31,14.74-34,26.22-48.85,6.77-8.74,13.53-17.47,19.48-26.81a54.18,54.18,0,0,0,8.8-26.15c.74-12.07.27-24.15.27-36.22,0-.1-.3-.2-.52-.33a10.87,10.87,0,0,0-2.36,4.2,72.25,72.25,0,0,0-4.35,17.81c-.84,6-.11,12.09-1.14,18.07-.88,5.16-2.28,10.06-6.41,13.86-5.34-9.91-11-12.54-18.71-8.9-4.47,2.12-6.33,6.76-4.44,11.07.1,0,.23,0,.28,0a2.24,2.24,0,0,0,.55-.69,6.43,6.43,0,0,1,6.58-4.54c3,0,4.86,2,6.11,4.47,2.53,4.94,1.37,9.78-.89,14.42-1.71,3.52-4.42,6.38-7,9.32a379,379,0,0,0-25.47,32.67c-.37.53-.6,1.27-1.62,1.44-.05-.52-.11-1-.14-1.46-.94-14.32-.66-28.66-.6-43a21,21,0,0,1,.41-4c3-15,8.81-29.13,15.55-42.78A60.08,60.08,0,0,0,329.73,143c.07-1.94,0-4-1.38-5.72-.91.68-.85,1.56-1.06,2.32-2.1,7.73-4.76,15.25-9,22.07a180.12,180.12,0,0,0-18.56,38.92,6.09,6.09,0,0,1-2.09,3.5c-.81-2-1.61-3.77-2.23-5.58a152.16,152.16,0,0,0-15.22-32.38,91.62,91.62,0,0,1-11.72-27.19c-.15-.59-.16-1.24-1-1.58-1.23,1.36-1.28,3.16-1.26,4.79.07,7.52.71,15.09,4.3,21.77,4.59,8.51,7.66,17.6,11.35,26.45,4.72,11.28,7.2,22.93,6.52,35.27-.45,8.07-.19,16.18-.33,24.27-.05,3-.34,6-.57,9.75-1-1.4-1.63-2.17-2.19-3-5.88-8.38-12-16.54-18.61-24.4-3.74-4.48-7.51-8.93-11.17-13.47A19.28,19.28,0,0,1,251.24,205c.25-3.75,3.21-7.61,6.27-8.31,3.3-.76,5.62.65,7.89,4.75.12.21.45.3.7.47a8.42,8.42,0,0,0-2.46-9.92c-5.07-4.15-13.62-3.13-17.49,2.17-1.22,1.67-2.18,3.52-3.32,5.39a18,18,0,0,1-5.11-8.47,43.83,43.83,0,0,1-1.81-13.33A74.59,74.59,0,0,0,231,149.87c-.61-1.5-1-3.19-3-4.44,0,10.09.09,19.69,0,29.29a61.77,61.77,0,0,0,11.2,36.92c6.84,9.85,14.24,19.25,21.4,28.84C272.17,256,281,272.8,284.8,291.94a117.09,117.09,0,0,1,2.49,26.37c-2.57-5.56-5.05-11.11-8.4-16.21-3.7-5.62-7.9-10.74-14-13.85-10.8-5.45-23-.6-27.08,10.76-3.65,10,.68,23.47,9.52,29.57.5.35,1,.81,1.89.29-.57-2.81-2-5.39-3.11-8.06-2.76-6.41-2.17-12.83.32-19.09,1.68-4.23,5.2-5.85,9.73-5a18,18,0,0,1,9.54,5.2c4.3,4.26,7.15,9.45,9.46,14.95,5.08,12.06,7.75,24.74,9.34,37.67a106.54,106.54,0,0,1,1,15.79c-1.32,0-1.9-.81-2.61-1.32a175.48,175.48,0,0,0-17.5-11.34c-9.58-5.26-19.3-10.27-28.87-15.55A132.77,132.77,0,0,1,212,325.29c-9.52-8.48-11.78-18.38-7-30.16,2.49-6.18,5.6-12.05,8.45-18,2.38-5,3.93-10.07,3.53-15.66a34.69,34.69,0,0,1,.58-8.26c.87-5.13,3.42-8,7.94-9,9.95-2.2,16.9,3.08,17.86,13.58.21,2.36.37,4.72.55,7.08a1.88,1.88,0,0,0,1.69-1.35c3.1-6.2.84-17.5-4.62-23.19-5.16-5.37-13-6.72-20.38-3.49-6,2.63-7.68,1.94-9.47-4.45A50.5,50.5,0,0,1,209.81,215c.42-5.83,1.71-11.53,2.59-17.29.15-1,.82-2.51-.49-3-1-.4-1.7,1-2.21,1.78-5.68,9-8.84,18.68-6.45,29.44,1.18,5.28,2.66,10.49,4.23,15.67a46.71,46.71,0,0,1,.82,23.65c-2.48,11.63-11.34,20.12-14.86,31.56-5.95-7.27-8.14-15.52-9-24-2-19.72-11.4-36-22.81-51.46a6.81,6.81,0,0,0-3.55-3c-.41,3.24.93,5.8,2.44,8.14,9.56,14.84,13.22,31.44,15.34,48.68,2.64,21.5,11.09,40.28,27.83,54.73a173.25,173.25,0,0,0,36.71,24.36c7.78,3.83,15.64,7.54,22.81,12.53,15.75,10.95,21.27,27.08,23.45,45.8-1.38-1.2-2.2-1.92-3-2.63-13.42-11.44-28.53-18.22-46.56-16.94a102.94,102.94,0,0,0-20.43,4c-7.6,2.13-15.18,3.88-23.25,2.85-14.89-1.91-24.55-14.08-22.57-28.95,1-7.29,7.34-11.13,14.18-8.6,2.8,1,4.13,3.47,5.61,5.76a2.34,2.34,0,0,0,1.06-1.89c1.12-5.93-1.23-10.41-5.95-13.77-1.27-.91-1.82-1.73-1.32-3.26,1.31-4,1.28-8.08,1-12.16-.53-8-2.41-15.58-7.77-21.87-1.9-2.23-4-4.27-7.09-5,0,.4-.09.62,0,.76,7.77,16.08,9.18,32.05-.82,47.83-1.26,2-2.55,3.95-3.81,5.94a26.19,26.19,0,0,0-3.63,18c.52,4,2.45,7.48,4.91,11.29a56.66,56.66,0,0,1-21.1-7.75c-24-15.19-28.26-37.32-16.5-61.95a18.52,18.52,0,0,1,9.65-9.47c7-2.93,13.58.17,15.67,7.44a16.42,16.42,0,0,1,.19,9.37c-.2.66-.65,1.48.13,1.94s1.34-.24,1.85-.73c2.2-2.08,4-4.43,4.29-7.57a17.7,17.7,0,0,0-18-19c-2.2.09-4.39.42-6.74.65,1-4,2.27-7.65,2.42-11.6a82.44,82.44,0,0,0-.18-12c-.64-5.88-2-11.55-6.32-15.93-5.82-5.91-13.88-3.84-16,4-.23.83-.51,1.65.35,2.2s1.26-.21,1.79-.68c4.09-3.58,8.26-3,10.85,1.81a27.9,27.9,0,0,1,3,16.35c-.81,8.35-3.66,16.09-6.87,23.75-5.25,12.48-12.26,24.45-11.37,38.81a77.1,77.1,0,0,1-6.71-17.39c-2.4-8.88-3.11-18.17-6.13-26.88C97,296.61,89.25,286.72,76.28,281.71a11.92,11.92,0,0,0-7.46-.75c1.77.9,2.91,1.46,4,2.05,11.58,6.16,20,14.82,22.24,28.3.56,3.33,1.07,6.68,1.42,10,2.2,21,10.09,39.67,23,56.31a68.4,68.4,0,0,0,26.77,21c9.26,4.1,18.9,7.13,28.47,10.39,1,.33,2.2.3,2.95,1.45-7,4.92-12.06,11.46-17.14,18-4.94,6.39-9.7,12.95-15.48,18.65-5.24,5.16-11.07,9.37-18.32,11.3-16.65,4.44-30.25-6.35-29-23,.82-11.15,7.75-15.67,18.13-11.83.47.17,1,.52,1.43.15s.48-1,.36-1.68c-.73-3.82-6.37-7.72-10.18-7.17-2.76.4-5.18,1.69-7.61,2.72-1-4.13-1.69-8.16-2.83-12.08-2.85-9.76-7.26-18.68-15-25.54-1.45-1.28-2.89-2.72-5.37-3,.52.73.79,1.15,1.1,1.55C88.64,392.67,92.4,408.76,89.8,426.2c-2,13.63.18,25.67,10.52,35.43,2.25,2.13,4.69,4.07,7.37,6.38a41.45,41.45,0,0,1-10.7-.64C81.15,464,67.9,457.56,64.27,437.73c-.35-2-.45-4-2-6.48-4.46,9.82-3.11,18.63,1.72,27.37-4.55,1.54-9.25,2.8-11.36,7.67a18.55,18.55,0,0,0-.87,13.76c1.82,5.26,8.74,9.12,13.2,7.67-1.81-2.21-3.78-4.3-5.39-6.64-2.64-3.8-2.28-6.9,1-10.17,4-4,8.9-5.2,14.4-3.9,4.53,1.08,8.53,3.39,12.6,5.5,5.84,3,11.84,5.52,18.47,6.23,3.37.36,6.69-.15,10.21-.33-.39,1.9-.81,3.56-1,5.26-1,7.5-.32,14.57,5.67,20.07,3.17,2.91,6.9,4.37,11.27,3.49,3.57-.73,5.34-3.85,3.94-6.83-1.16,1.29-2.06,2.79-3.92,3.28-4.51,1.19-8-1.32-8.52-6.62a54.1,54.1,0,0,1,.62-16.21c.57-2.72,1.52-5.34,4-7,11.55-8,20.93-18.29,29.93-28.95,6.41-7.58,12.6-15.36,19.95-22.09C184.2,417.23,191,413,199,411q11.44-2.86,22.9-5.66c11.26-2.75,22.45-3.07,33.53.88,14.69,5.24,23.14,16.55,29.31,30.09ZM255.29,98.37,247,95.54c-5.74-2-5.73-1.94-3.46-7.39.26-.62.8-1.2.34-2.1l-6.71,4c-1.1-6.48-2.15-12.68-3.21-18.88h-.45c-1.05,6.21-2.11,12.41-3.21,18.86l-7.41-4.31c1.07,2.51,1.71,4.34,2.61,6,.81,1.53.28,2.07-1.16,2.53-3.83,1.23-7.63,2.56-12.13,4.09,3.15,1.09,5.54,1.94,7.95,2.76,6,2,6,2,3.65,7.71-.2.5-.76,1-.24,1.9l6.72-4.06c1.12,6.58,2.18,12.72,3.23,18.86l.46,0c1-6.18,2.11-12.37,3.21-18.82l7.4,4.5c-1.09-2.64-1.7-4.48-2.6-6.15s-.27-2.08,1.16-2.54C246.91,101.25,250.66,99.94,255.29,98.37ZM352.1,86l-.41.47c.68,1.58,1.24,3.24,2.07,4.74,1,1.79.57,2.56-1.37,3.15-3.7,1.11-7.32,2.47-11.73,4,4.62,1.56,8.36,2.89,12.15,4.08,1.53.48,1.82,1,1.13,2.57-.79,1.74-1.94,3.42-2.08,5.78l6.88-4.15c1.1,6.44,2.16,12.62,3.22,18.8l.49,0c1.05-6.18,2.1-12.35,3.19-18.78l7.45,4.47c-1-2.43-1.61-4.16-2.48-5.72-1-1.84-.42-2.53,1.41-3.09,3.68-1.13,7.3-2.47,11.7-4-4.71-1.61-8.55-2.95-12.43-4.22-1.21-.39-1.59-.84-1-2.12.92-1.86,1.61-3.83,2.66-6.4l-7.35,4.45-3.23-18.79-.49.07c-1.05,6.16-2.1,12.32-3.2,18.73ZM161.79,184.6c-4.21-1.43-7.52-2.71-10.92-3.65-2.49-.7-3.46-1.57-1.92-4.14.74-1.25,1.7-2.65,1.48-4.58l-6.76,4.07-3.16-18.64h-.57c-1,6.09-2.05,12.18-3.08,18.34-1.54-.22-2.47-1.25-3.62-1.85s-2.14-1.25-3.89-2.3c.68,1.58,1,2.31,1.3,3,2.1,4.93,2.1,4.92-3.1,6.68l-8.87,3c4.3,1.47,7.6,2.87,11,3.69,2.94.7,2.92,1.95,1.75,4.18a10.08,10.08,0,0,0-1.57,4.46c2.55-1.05,4.36-3,6.93-3.76,1.08,6.26,2.12,12.34,3.16,18.41a145.73,145.73,0,0,0,3.21-16.44c.28-1.94.88-2.24,2.47-1.11s3.1,1.94,4.65,2.9a18.54,18.54,0,0,0-1.86-5.81c-.73-1.43-.31-1.91,1.1-2.36C153.34,187.58,157.07,186.22,161.79,184.6ZM456,157.6l-.59,0c-.9,5.49-1.86,11-2.66,16.46-.28,2-.87,2.19-2.43,1.08s-3.11-1.94-4.67-2.9a18.5,18.5,0,0,0,1.85,5.79c.73,1.43.3,1.93-1.1,2.37-3.81,1.23-7.58,2.58-12.19,4.17,4.25,1.45,7.63,2.8,11.13,3.74,2.59.7,2.84,1.8,1.68,4-.71,1.36-1.65,2.76-1.57,4.69,1.7-1,3.26-1.83,4.63-2.87,2-1.49,2.42-.73,2.72,1.34.77,5.33,1.73,10.62,2.61,15.93H456c1-6.06,2-12.11,3.13-18.5l7.39,4.4c-1-2.42-1.64-4.21-2.49-5.89s-.53-2.25,1.22-2.78c3.77-1.13,7.46-2.51,11.95-4-4.39-1.52-7.95-2.88-11.6-4-1.89-.56-2.51-1.19-1.46-3.08a53.71,53.71,0,0,0,2.22-5.31c-2.9.95-4.7,3.1-7.29,3.79C458,169.78,457,163.69,456,157.6ZM42.57,249.4c-.75,4.6-1.4,8.42-2,12.25-.92,5.91-.9,5.91-5.93,2.87-.59-.36-1.2-.68-2.45-1.38A61.6,61.6,0,0,0,34.64,269c.92,1.68.36,2.26-1.25,2.77-3.76,1.18-7.46,2.51-11.94,4,4.53,1.55,8.22,2.93,12,4.07,1.77.54,2,1.21,1.19,2.81a15.25,15.25,0,0,0-2,5.56l6.88-4.14,3.16,18.64.56,0c1-6.13,2.08-12.26,3.16-18.67l7.4,4.45c-1-2.34-1.49-4-2.3-5.46-1-1.83-.89-2.71,1.39-3.34,3.66-1,7.21-2.43,11.59-4-4.5-1.54-8.21-2.9-12-4-1.73-.52-2-1.22-1.21-2.78s1.51-3.48,2.5-5.83c-1.3.73-2,1.1-2.65,1.5-4.85,2.94-4.72,2.92-5.74-2.76C44.72,257.89,44.74,253.74,42.57,249.4Z"/><path class="cls-2" d="M298.56,10.2c-1.68.93-.06,2,.05,2.85.65,5.06,1.65,10.08,2.36,15.13.27,1.92.87,2,2.27,1,1.57-1.07,3.21-2,5.6-3.48-1.07,2.55-1.67,4.36-2.56,6S306,34,307.59,34.5c3.69,1.14,7.32,2.46,11.92,4-4.18,1.42-7.49,2.72-10.9,3.65-2.53.69-3.47,1.64-1.94,4.14a10.38,10.38,0,0,1,1.39,4.56c-1.58-1-3.21-1.86-4.73-2.93S301.22,47,301,49c-.7,5.16-1.63,10.28-2.47,15.42-.06.37,0,.84-.83,1C296.74,60,295.73,54.52,295,49c-.3-2.13-1-2.07-2.43-1.05s-3.1,1.94-5.42,3.37c1-2.38,1.53-4.09,2.35-5.65.92-1.74.79-2.58-1.33-3.19-3.68-1-7.26-2.44-11.68-4,4.45-1.53,8.14-2.88,11.88-4,1.66-.51,2.16-1.12,1.29-2.78s-1.49-3.47-2.53-6c2.44,1.48,4.18,2.48,5.85,3.58,1.18.77,1.7.73,1.95-.85.95-5.92,2-11.82,3-17.74,0-.15-.38-.37-.59-.55Z"/><path class="cls-2" d="M574.32,276.25c-4.52.63-8.58,2.74-12.89,4-1.28.39-.55,1.28-.26,2,.75,1.84,1.52,3.68,2.58,6.24l-7.4-4.42c-1.08,6.43-2.1,12.54-3.13,18.66l-.55.08c-1-6.08-2-12.16-3.12-18.43-2.57.65-4.41,2.71-6.78,3.61-.41-.45-.15-.79,0-1.17.69-2.09,3-4.45,2-6s-3.91-1.76-6-2.52-4.4-1.5-7.39-2.52c4.43-1.51,8.13-2.87,11.89-4,1.88-.56,2.12-1.34,1.25-3s-1.43-3.33-2.48-5.84c2.3,1.42,3.91,2.34,5.45,3.38s2.13,1.14,2.42-1c.62-4.76,1.52-9.48,2.33-14.22.13-.76-.09-1.68,1-2.27.9,5.47,1.87,10.85,2.64,16.25.29,2.08.89,2.46,2.61,1.22,1.4-1,2.94-1.84,4.68-2.91-.06,2.28-1.18,4-1.94,5.71-.65,1.49-.53,2.1,1.12,2.59,4,1.22,8,2.64,12,4Z"/><path class="cls-3" d="M284.77,436.32c-6.17-13.54-14.62-24.85-29.31-30.09-11.08-4-22.27-3.63-33.53-.88Q210.47,408.16,199,411c-8,2-14.83,6.22-20.89,11.76-7.35,6.73-13.54,14.51-19.95,22.09-9,10.66-18.38,20.92-29.93,28.95-2.45,1.7-3.4,4.32-4,7a54.1,54.1,0,0,0-.62,16.21c.48,5.3,4,7.81,8.52,6.62,1.86-.49,2.76-2,3.92-3.28,1.4,3-.37,6.1-3.94,6.83-4.37.88-8.1-.58-11.27-3.49-6-5.5-6.7-12.57-5.67-20.07.23-1.7.65-3.36,1-5.26-3.52.18-6.84.69-10.21.33-6.63-.71-12.63-3.2-18.47-6.23-4.07-2.11-8.07-4.42-12.6-5.5-5.5-1.3-10.36-.12-14.4,3.9-3.28,3.27-3.64,6.37-1,10.17,1.61,2.34,3.58,4.43,5.39,6.64-4.46,1.45-11.38-2.41-13.2-7.67a18.55,18.55,0,0,1,.87-13.76c2.11-4.87,6.81-6.13,11.36-7.67-4.83-8.74-6.18-17.55-1.72-27.37,1.53,2.44,1.63,4.53,2,6.48C67.9,457.56,81.15,464,97,467.37a41.45,41.45,0,0,0,10.7.64c-2.68-2.31-5.12-4.25-7.37-6.38C90,451.87,87.76,439.83,89.8,426.2c2.6-17.44-1.16-33.53-12.09-47.66-.31-.4-.58-.82-1.1-1.55,2.48.25,3.92,1.69,5.37,3,7.79,6.86,12.2,15.78,15,25.54,1.14,3.92,1.88,7.95,2.83,12.08,2.43-1,4.85-2.32,7.61-2.72,3.81-.55,9.45,3.35,10.18,7.17.12.64.19,1.25-.36,1.68s-1,0-1.43-.15c-10.38-3.84-17.31.68-18.13,11.83-1.23,16.69,12.37,27.48,29,23,7.25-1.93,13.08-6.14,18.32-11.3,5.78-5.7,10.54-12.26,15.48-18.65,5.08-6.56,10.18-13.1,17.14-18-.75-1.15-2-1.12-2.95-1.45-9.57-3.26-19.21-6.29-28.47-10.39a68.4,68.4,0,0,1-26.77-21c-12.91-16.64-20.8-35.3-23-56.31-.35-3.35-.86-6.7-1.42-10-2.25-13.48-10.66-22.14-22.24-28.3-1.11-.59-2.25-1.15-4-2.05a11.92,11.92,0,0,1,7.46.75c13,5,20.69,14.9,25.12,27.64,3,8.71,3.73,18,6.13,26.88a77.1,77.1,0,0,0,6.71,17.39c-.89-14.36,6.12-26.33,11.37-38.81,3.21-7.66,6.06-15.4,6.87-23.75a27.9,27.9,0,0,0-3-16.35c-2.59-4.77-6.76-5.39-10.85-1.81-.53.47-1,1.21-1.79.68s-.58-1.37-.35-2.2c2.14-7.86,10.2-9.93,16-4,4.33,4.38,5.68,10.05,6.32,15.93a82.44,82.44,0,0,1,.18,12c-.15,3.95-1.43,7.61-2.42,11.6,2.35-.23,4.54-.56,6.74-.65a17.7,17.7,0,0,1,18,19c-.28,3.14-2.09,5.49-4.29,7.57-.51.49-1.11,1.17-1.85.73s-.33-1.28-.13-1.94a16.42,16.42,0,0,0-.19-9.37c-2.09-7.27-8.63-10.37-15.67-7.44a18.52,18.52,0,0,0-9.65,9.47c-11.76,24.63-7.5,46.76,16.5,61.95a56.66,56.66,0,0,0,21.1,7.75c-2.46-3.81-4.39-7.28-4.91-11.29a26.19,26.19,0,0,1,3.63-18c1.26-2,2.55-4,3.81-5.94,10-15.78,8.59-31.75.82-47.83-.07-.14,0-.36,0-.76,3.1.72,5.19,2.76,7.09,5,5.36,6.29,7.24,13.87,7.77,21.87.27,4.08.3,8.2-1,12.16-.5,1.53,0,2.35,1.32,3.26,4.72,3.36,7.07,7.84,5.95,13.77a2.34,2.34,0,0,1-1.06,1.89c-1.48-2.29-2.81-4.73-5.61-5.76-6.84-2.53-13.21,1.31-14.18,8.6-2,14.87,7.68,27,22.57,28.95,8.07,1,15.65-.72,23.25-2.85a102.94,102.94,0,0,1,20.43-4c18-1.28,33.14,5.5,46.56,16.94.83.71,1.65,1.43,3,2.63-2.18-18.72-7.7-34.85-23.45-45.8-7.17-5-15-8.7-22.81-12.53a173.25,173.25,0,0,1-36.71-24.36c-16.74-14.45-25.19-33.23-27.83-54.73-2.12-17.24-5.78-33.84-15.34-48.68-1.51-2.34-2.85-4.9-2.44-8.14a6.81,6.81,0,0,1,3.55,3c11.41,15.46,20.83,31.74,22.81,51.46.86,8.46,3.05,16.71,9,24,3.52-11.44,12.38-19.93,14.86-31.56a46.71,46.71,0,0,0-.82-23.65c-1.57-5.18-3-10.39-4.23-15.67-2.39-10.76.77-20.41,6.45-29.44.51-.82,1.16-2.18,2.21-1.78,1.31.48.64,2,.49,3-.88,5.76-2.17,11.46-2.59,17.29a50.5,50.5,0,0,0,1.26,17.37c1.79,6.39,3.44,7.08,9.47,4.45,7.39-3.23,15.22-1.88,20.38,3.49,5.46,5.69,7.72,17,4.62,23.19a1.88,1.88,0,0,1-1.69,1.35c-.18-2.36-.34-4.72-.55-7.08-1-10.5-7.91-15.78-17.86-13.58-4.52,1-7.07,3.87-7.94,9a34.69,34.69,0,0,0-.58,8.26c.4,5.59-1.15,10.69-3.53,15.66-2.85,6-6,11.86-8.45,18-4.76,11.78-2.5,21.68,7,30.16a132.77,132.77,0,0,0,24.49,16.8c9.57,5.28,19.29,10.29,28.87,15.55A175.48,175.48,0,0,1,282.82,369c.71.51,1.29,1.32,2.61,1.32a106.54,106.54,0,0,0-1-15.79c-1.59-12.93-4.26-25.61-9.34-37.67-2.31-5.5-5.16-10.69-9.46-14.95a18,18,0,0,0-9.54-5.2c-4.53-.82-8.05.8-9.73,5-2.49,6.26-3.08,12.68-.32,19.09,1.14,2.67,2.54,5.25,3.11,8.06-.94.52-1.39.06-1.89-.29-8.84-6.1-13.17-19.54-9.52-29.57,4.13-11.36,16.28-16.21,27.08-10.76,6.14,3.11,10.34,8.23,14,13.85,3.35,5.1,5.83,10.65,8.4,16.21a117.09,117.09,0,0,0-2.49-26.37C281,272.8,272.17,256,260.59,240.48c-7.16-9.59-14.56-19-21.4-28.84A61.77,61.77,0,0,1,228,174.72c.11-9.6,0-19.2,0-29.29,1.94,1.25,2.36,2.94,3,4.44a74.59,74.59,0,0,1,4.93,27.92,43.83,43.83,0,0,0,1.81,13.33,18,18,0,0,0,5.11,8.47c1.14-1.87,2.1-3.72,3.32-5.39,3.87-5.3,12.42-6.32,17.49-2.17A8.42,8.42,0,0,1,266.1,202c-.25-.17-.58-.26-.7-.47-2.27-4.1-4.59-5.51-7.89-4.75-3.06.7-6,4.56-6.27,8.31a19.28,19.28,0,0,0,4.27,13.74c3.66,4.54,7.43,9,11.17,13.47,6.57,7.86,12.73,16,18.61,24.4.56.8,1.16,1.57,2.19,3,.23-3.73.52-6.74.57-9.75.14-8.09-.12-16.2.33-24.27.68-12.34-1.8-24-6.52-35.27-3.69-8.85-6.76-17.94-11.35-26.45-3.59-6.68-4.23-14.25-4.3-21.77,0-1.63,0-3.43,1.26-4.79.84.34.85,1,1,1.58a91.62,91.62,0,0,0,11.72,27.19,152.16,152.16,0,0,1,15.22,32.38c.62,1.81,1.42,3.56,2.23,5.58a6.09,6.09,0,0,0,2.09-3.5,180.12,180.12,0,0,1,18.56-38.92c4.24-6.82,6.9-14.34,9-22.07.21-.76.15-1.64,1.06-2.32,1.38,1.74,1.45,3.78,1.38,5.72a60.08,60.08,0,0,1-6.08,24.77c-6.74,13.65-12.52,27.74-15.55,42.78a21,21,0,0,0-.41,4c-.06,14.33-.34,28.67.6,43,0,.47.09.94.14,1.46,1-.17,1.25-.91,1.62-1.44a379,379,0,0,1,25.47-32.67c2.54-2.94,5.25-5.8,7-9.32,2.26-4.64,3.42-9.48.89-14.42-1.25-2.45-3.09-4.45-6.11-4.47a6.43,6.43,0,0,0-6.58,4.54,2.24,2.24,0,0,1-.55.69c-.05,0-.18,0-.28,0-1.89-4.31,0-9,4.44-11.07,7.69-3.64,13.37-1,18.71,8.9,4.13-3.8,5.53-8.7,6.41-13.86,1-6,.3-12.06,1.14-18.07A72.25,72.25,0,0,1,364.9,150a10.87,10.87,0,0,1,2.36-4.2c.22.13.52.23.52.33,0,12.07.47,24.15-.27,36.22a54.18,54.18,0,0,1-8.8,26.15c-5.95,9.34-12.71,18.07-19.48,26.81C327.75,250.07,318,265.8,313,284.11a117.33,117.33,0,0,0-4.21,34.29c.67-1.52,1.33-3,2-4.57,3.5-7.92,7.68-15.39,14.15-21.32,5.14-4.72,11.09-7.35,18.21-6.15,11.33,1.9,18.63,13.4,16,25.24a31.4,31.4,0,0,1-9.51,16.15c-.7.65-1.38,1.56-2.83,1.3.23-2.69,1.53-5,2.65-7.3,3-6.21,2.57-12.55.57-18.83-1.7-5.35-5.58-7.26-11.05-6-5.1,1.15-8.69,4.39-11.7,8.4C321.53,313,318.45,321.85,316,331a160.25,160.25,0,0,0-5.5,35.71c0,.92,0,1.84,0,2.76a3.68,3.68,0,0,0,.26.88,2.43,2.43,0,0,0,.88-.24c13.07-10,27.82-17.14,42.23-24.85,9-4.83,17.91-9.9,25.92-16.33,14.94-12,17.12-21.13,9.18-38.54-2-4.46-4.23-8.85-6.4-13.25-2.43-4.94-3.94-10.06-3.56-15.66a33.54,33.54,0,0,0-.44-7.34c-1-6.41-3.68-9.35-9.55-10.24-6.43-1-12,1.62-14.48,6.82a23.23,23.23,0,0,0-2,9.22c-.07,1.62-.29,3.24-.46,5.09-1.8-.87-2.13-2.39-2.42-3.8a23.41,23.41,0,0,1,4.22-19.47,17.24,17.24,0,0,1,20.71-5.27c6.3,2.75,8.4,3.93,10.71-5.88,2.21-9.35.87-18.73-.88-28-.26-1.4-.59-2.8-.75-4.22-.13-1.24-1-3.07.42-3.56s2,1.42,2.72,2.48A45.87,45.87,0,0,1,392.5,211c2,7.54.53,14.77-1.55,22-2,6.86-4.56,13.6-4.56,20.89a46.68,46.68,0,0,0,6.36,24c3.51,6,7.56,11.68,9.59,18.79,3.59-3.89,5.33-8.27,6.8-12.83,2.35-7.36,2.32-15.18,4.32-22.57,4.17-15.44,12.05-29,22-41.36.53-.66,1.07-1.56,2.41-1.41.27,3.58-1.52,6.45-3.28,9.24-6.08,9.64-9.73,20.19-12.11,31.27-1.56,7.33-1.78,14.84-3.26,22.15-4.49,22.19-15.09,40.57-33.61,54.19a215.07,215.07,0,0,1-33.4,20.5c-4.32,2.09-8.55,4.36-12.79,6.61-16,8.5-25.14,22-28.59,39.59-.45,2.31-.84,4.63-1.22,6.95-.15.9-.18,1.82-.28,2.94,1.32-.21,1.91-1.21,2.69-1.87,13.64-11.71,29-18.53,47.41-17.1,9.14.72,17.83,3.5,26.64,5.73a39.49,39.49,0,0,0,22.39-.35A24.81,24.81,0,0,0,424.94,370c-1-4.76-3.57-7.42-8-8.19-4.78-.83-8.28.79-10.86,5.05-.27.43-.4.95-1,1.1-2.56-4.74-1-10.84,4.11-14.78,2.09-1.6,2.35-2.91,1.91-5.51-1.82-10.69-.62-21,5.43-30.36a17.56,17.56,0,0,1,9.06-7.46,54.24,54.24,0,0,0-5.5,34.91c1.07,6.65,4.69,12.16,8.41,17.56a27.78,27.78,0,0,1,5.13,20c-.55,4.13-2.5,7.68-4.84,11.51a52.21,52.21,0,0,0,15.28-4.67c14.15-6.66,24.73-16.86,27.73-32.6,2.43-12.75-.53-25-7.87-35.93a15,15,0,0,0-10.83-6.85c-8.66-1-14.76,7.2-12.64,16.89.21.94,1.22,2.17.14,2.77s-1.92-.81-2.69-1.55c-3.57-3.44-4-7.62-2.83-12.18,2.39-9.56,10.73-14.81,21.09-13.22.9.14,1.79.3,3.11.53a51.37,51.37,0,0,1-2.6-14.84c0-5.86.12-11.67,2.11-17.27,1.48-4.15,3.66-7.78,7.72-9.92,5.26-2.75,12.37,1.06,13,7,.07.64.07,1.26-.54,1.63s-1.1-.08-1.6-.47c-5.08-4-9.09-3.05-11.77,2.93-3.29,7.37-2.78,14.95-1,22.57,2,8.51,5.71,16.38,9.2,24.33,3.21,7.3,6.36,14.61,7.39,22.64a67.1,67.1,0,0,1,.16,8c1.11-.38,1.17-1.39,1.53-2.15,4.9-10.37,7-21.52,9.08-32.68,2.25-12.38,7.37-23.15,17.26-31.27,4.9-4,10.31-6.91,17.2-7-.65,1.71-2.16,1.73-3.2,2.28-11.94,6.28-20.46,15.2-22.59,29.08-.89,5.76-1.59,11.55-2.54,17.3-3.45,20.9-12.88,38.88-27,54.44-9.09,10-21,15.33-33.48,19.7-6.42,2.25-12.89,4.4-19.76,6.75,11,8.06,17.71,19.32,26,29.25,4.79,5.77,9.82,11.28,16.34,15.18,6.92,4.14,14.33,6.09,22.32,4.22,12.83-3,20-19.9,13.36-31.32a11,11,0,0,0-14.8-4.51c-.81.39-1.7,1.65-2.65.48-.74-.91-.05-2,.43-2.85,2.8-5.17,7-6.85,12.57-5,1.53.52,3,1.25,4.74,2,1.36-8,3.22-15.78,6.87-23s8.23-13.75,15.69-18c.1.61.21.85.14.94-11.76,14.84-15.55,31.77-12.63,50.2,2.61,16.44-3.16,29-16.28,38.68-.49.35-1,.71-2.06,1.54a51.55,51.55,0,0,0,30.81-8.49c10.18-6.51,11.63-17.38,14.4-28,2.41,2.48,2.71,5.27,3,7.95a27.54,27.54,0,0,1-3.28,17.19c-.83,1.44-1,2.19.9,2.67,8.85,2.2,12,8.09,11,18.43-.59,6.12-7.58,11.08-14.13,10.18,1.19-1.34,2.3-2.49,3.31-3.73,2.37-2.92,5.4-5.75,3.54-10-2-4.5-5.82-6.75-10.51-7.5-4-.63-7.72.51-11.28,2.19-4.16,2-8.21,4.15-12.38,6.07-6.91,3.19-14.12,4.76-21.77,3.58a2,2,0,0,0-1.86.21c1.33,5.34,2.07,10.78.64,16.28-2.08,8-9.16,13.4-16,12.33-3.81-.59-5.63-3.22-4.68-7.06,1.1,1,1.74,2.33,3,3,3.54,1.89,8.27.15,9.06-3.86a41.33,41.33,0,0,0-1.12-21.8,7.21,7.21,0,0,0-2.71-3.63c-12.94-9-23.14-20.71-33.13-32.67a214.69,214.69,0,0,0-16.3-17.95A53.54,53.54,0,0,0,393,409.93c-9.05-2.11-18-4.83-27.21-6C346,401.4,329.65,407.26,318,424.06a92.1,92.1,0,0,0-7,12.4c.94.41,1.45-.1,2-.56,13-11,27.82-11.69,43.08-6.85,15.91,5,28.21,14.91,36,30.06,5,9.75,8.87,20,13.35,29.94,2.39,5.33,4.87,10.61,8.58,15.17,2.51,3.08,5.42,5.61,9.55,6.18,3.66.5,5.49-.49,7.15-3.84.5-1,.8-2.1,1.25-3.13s.37-2.24,1.4-3c2,3.06,1.73,8.54-.66,12s-6.84,4.84-11.55,3.71c-4-1-7.21-3.29-10.1-6.12-5.61-5.52-9.59-12.2-13.42-19-1.55-2.75-3.06-5.51-4.76-8.6-1.22,3.57-2.12,6.81-4.07,9.6-3.5,5-8,6.83-13.18,5.31-4.42-1.29-6.68-4.78-6.17-9.52a.83.83,0,0,1,1,.38c4.13,5.4,10.86,5,14.3-.86,2.63-4.49,3.11-9.47,2.88-14.54-.73-15.85-16.77-32.84-32.85-34.52.82,3,1.65,5.85,2.41,8.73,3,11.33,1.94,22-5.78,31.27-4.59,5.52-4.6,11.29-1.24,17.52-3.87-.84-6.93-4.83-7.38-9.28a20.61,20.61,0,0,1,3.43-14c5.61-8.33,5.95-17.45,4-26.84-1.45-7-5.17-9.85-12.29-9.83-15,.06-24.49,8.56-26.5,23.5-1,7.7-.18,15.34.05,23,1.37,45.75,1,91.54,1.83,137.3.55,30,1.23,60,3.79,89.9a287.84,287.84,0,0,0,4,29.48c2.62,13.77,9.6,24.83,20.07,33.9a105.53,105.53,0,0,0,18.62,12.93c6.15,3.34,13.11,3.72,19.89,4.61,14.27,1.88,28.76,2.32,42.62,6.77,8.52,2.75,16.71,6.15,23.55,12.12,3.69,3.22,6.73,6.94,7.1,12.12.29,4.28-2.39,6.8-5.73,8.68-3.12,1.76-7.63,1-10.54-1.7-2.53-2.34-3.87-5.12-2.63-9.14,1.36,2.37,2.34,4.55,4.84,5.28s3.63.15,3.86-2.57a9.17,9.17,0,0,0-3.08-7.69,33.26,33.26,0,0,0-11.6-6.71c-13.06-5-26.68-6.8-40.59-7.21-.2,1.15.8,1.31,1.35,1.73a71.41,71.41,0,0,1,9.66,8,14.6,14.6,0,0,1,3.89,13c-.74,4.69-3.66,7.19-8.44,7.13a13.35,13.35,0,0,1-7.58-2.07c-2.62-1.81-3.36-4.19-2.17-7.48.91,2.8,3,3.19,5.27,3a4.11,4.11,0,0,0,3.92-5.54c-1.16-4.11-4.16-6.72-7.62-8.86-6.78-4.18-14.39-5.68-22.14-6.61a81.57,81.57,0,0,0-13.74-.66,21.47,21.47,0,0,0,4.68,6c4.33,4.38,4.72,9.57,3.26,15.1s-5.81,8.33-10.72,7.34-7.23-4.9-6.51-11.27a33.32,33.32,0,0,0,2.3,3.68c1,1.21,2.25,2.32,4,1.71,1.52-.54,1.95-2.08,2-3.52a14.19,14.19,0,0,0-3.71-10.42c-3.27-3.85-7.55-6.21-12.14-8.07-8.25-3.34-16.93-4.75-25.72-5.28-13.86-.84-27.62-.25-41,4.06a37.16,37.16,0,0,0-13.44,7.16,15.85,15.85,0,0,0-5.8,10.8c-.17,2.08-.13,4.54,2.16,5.24,2.45.76,3.82-1.36,4.94-3.25a13.13,13.13,0,0,0,.73-1.76c1.59,3.3,0,7.93-3.24,9.93a9.1,9.1,0,0,1-11.41-2.06c-3.61-4.39-3.8-13.06-.29-17.54,2-2.54,4.13-5,6.67-8-12.82.25-24.78,1-35.71,6.95a17.3,17.3,0,0,0-7.73,7.66c-1.38,2.91-.85,5.52,1.36,6.71a5.52,5.52,0,0,0,7.2-2.33c1.43,2.95.44,5.72-2.72,7.6-3.78,2.25-9.81,2.28-12.54.07-2.92-2.36-4-8.24-2.46-12.87,1.39-4.06,4.38-6.84,7.58-9.44,2.34-1.91,4.77-3.7,7.78-6-16.21.58-31.3,2.55-45.51,9a24.94,24.94,0,0,0-8.07,5.48,9,9,0,0,0-2.58,7c.19,3,1.33,3.71,4.24,2.61a7.51,7.51,0,0,0,2.66-2c.78-.81.66-2.18,1.89-2.81,1.18,3.66-.13,6.52-2.74,8.82-2.88,2.53-6.29,3.47-10,2-5.64-2.33-7.72-7.51-5.31-13.09,2-4.68,5.64-8,9.74-10.8,9.82-6.69,20.9-10.12,32.42-12.33a206.14,206.14,0,0,1,28.92-3.45c16.34-.8,29.09-8.48,40.89-18.81,12.74-11.16,18.36-25.59,20.56-42,3.58-26.64,4.65-53.43,5.44-80.23,1.42-48.12,1.12-96.25,1.94-144.37.18-10.65.63-21.29,1-31.93.27-7.19.18-14.31-2.2-21.23-4.87-14.12-17.53-17.39-28.38-16.11-4.26.5-7,3.44-8,7.51-2.53,9.6-2.72,19.05,2.82,27.82,2.82,4.46,4.57,9.15,4.08,14.48a12.16,12.16,0,0,1-6.8,10.26c-.59-1.56.38-2.57.78-3.63,1.68-4.45,1.44-8.61-1.47-12.49-.24-.33-.44-.7-.7-1-8.65-10.36-9.39-22-5.64-34.42.61-2,1.2-4.08,1.82-6.2-.39-.07-.7-.23-1-.15-15.15,4.42-26.62,12.91-31,28.81a27.31,27.31,0,0,0,1.52,19.48,8.74,8.74,0,0,0,9.74,5.3c2.68-.37,4.11-2.35,5.87-4.63.86,3.54-.12,6.1-2.36,8a9.89,9.89,0,0,1-10,2.16c-4.87-1.64-7.41-5.56-9.24-10.05-.6-1.47-1-3-1.64-4.95-2.34,4.19-4.44,8-6.63,11.83-3.4,5.86-7.08,11.52-12.05,16.2-3.33,3.13-7,5.71-11.79,6-8.81.44-14.12-7.83-10.22-16.12,1.59,1.28,1.51,3.26,2.18,4.86,2.22,5.29,5.5,6.7,10.78,4.35,3.69-1.64,6.22-4.58,8.42-7.84,3.57-5.29,6.08-11.11,8.58-16.93,4.52-10.51,8.57-21.24,14.6-31,11.88-19.32,37.08-30.6,58.94-26.4,7,1.35,12.95,4.82,18.26,9.48l.69.22Z"/><path class="cls-2" d="M255.29,98.37c-4.63,1.57-8.38,2.88-12.16,4.09-1.43.46-2,1-1.16,2.54s1.51,3.51,2.6,6.15l-7.4-4.5c-1.1,6.45-2.16,12.64-3.21,18.82l-.46,0c-1.05-6.14-2.11-12.28-3.23-18.86l-6.72,4.06c-.52-.89,0-1.4.24-1.9,2.3-5.7,2.32-5.69-3.65-7.71-2.41-.82-4.8-1.67-7.95-2.76,4.5-1.53,8.3-2.86,12.13-4.09,1.44-.46,2-1,1.16-2.53-.9-1.69-1.54-3.52-2.61-6L230.28,90c1.1-6.45,2.16-12.65,3.21-18.86h.45c1.06,6.2,2.11,12.4,3.21,18.88l6.71-4c.46.9-.08,1.48-.34,2.1-2.27,5.45-2.28,5.44,3.46,7.39Z"/><path class="cls-2" d="M352.1,86l6.63,4c1.1-6.41,2.15-12.57,3.2-18.73l.49-.07,3.23,18.79L373,85.61c-1.05,2.57-1.74,4.54-2.66,6.4-.64,1.28-.26,1.73,1,2.12,3.88,1.27,7.72,2.61,12.43,4.22-4.4,1.51-8,2.85-11.7,4-1.83.56-2.44,1.25-1.41,3.09.87,1.56,1.44,3.29,2.48,5.72l-7.45-4.47c-1.09,6.43-2.14,12.6-3.19,18.78l-.49,0c-1.06-6.18-2.12-12.36-3.22-18.8l-6.88,4.15c.14-2.36,1.29-4,2.08-5.78.69-1.52.4-2.09-1.13-2.57-3.79-1.19-7.53-2.52-12.15-4.08,4.41-1.52,8-2.88,11.73-4,1.94-.59,2.36-1.36,1.37-3.15-.83-1.5-1.39-3.16-2.07-4.74Z"/><path class="cls-2" d="M161.79,184.6c-4.72,1.62-8.45,3-12.23,4.17-1.41.45-1.83.93-1.1,2.36a18.54,18.54,0,0,1,1.86,5.81c-1.55-1-3.16-1.85-4.65-2.9s-2.19-.83-2.47,1.11A145.73,145.73,0,0,1,140,211.59c-1-6.07-2.08-12.15-3.16-18.41-2.57.77-4.38,2.71-6.93,3.76a10.08,10.08,0,0,1,1.57-4.46c1.17-2.23,1.19-3.48-1.75-4.18-3.44-.82-6.74-2.22-11-3.69l8.87-3c5.2-1.76,5.2-1.75,3.1-6.68-.31-.73-.62-1.46-1.3-3,1.75,1,2.79,1.73,3.89,2.3s2.08,1.63,3.62,1.85c1-6.16,2.06-12.25,3.08-18.34h.57l3.16,18.64,6.76-4.07c.22,1.93-.74,3.33-1.48,4.58-1.54,2.57-.57,3.44,1.92,4.14C154.27,181.89,157.58,183.17,161.79,184.6Z"/><path class="cls-2" d="M456,157.6c1,6.09,2.05,12.18,3.1,18.44,2.59-.69,4.39-2.84,7.29-3.79a53.71,53.71,0,0,1-2.22,5.31c-1.05,1.89-.43,2.52,1.46,3.08,3.65,1.09,7.21,2.45,11.6,4-4.49,1.54-8.18,2.92-11.95,4-1.75.53-2,1.22-1.22,2.78s1.48,3.47,2.49,5.89l-7.39-4.4c-1.08,6.39-2.11,12.44-3.13,18.5h-.62c-.88-5.31-1.84-10.6-2.61-15.93-.3-2.07-.75-2.83-2.72-1.34-1.37,1-2.93,1.83-4.63,2.87-.08-1.93.86-3.33,1.57-4.69,1.16-2.2.91-3.3-1.68-4-3.5-.94-6.88-2.29-11.13-3.74,4.61-1.59,8.38-2.94,12.19-4.17,1.4-.44,1.83-.94,1.1-2.37a18.5,18.5,0,0,1-1.85-5.79c1.56,1,3.18,1.84,4.67,2.9s2.15.88,2.43-1.08c.8-5.5,1.76-11,2.66-16.46Z"/><path class="cls-2" d="M42.57,249.4c2.17,4.34,2.15,8.49,2.85,12.45,1,5.68.89,5.7,5.74,2.76.67-.4,1.35-.77,2.65-1.5-1,2.35-1.63,4.15-2.5,5.83s-.52,2.26,1.21,2.78c3.77,1.15,7.48,2.51,12,4-4.38,1.52-7.93,2.94-11.59,4-2.28.63-2.39,1.51-1.39,3.34.81,1.48,1.33,3.12,2.3,5.46l-7.4-4.45c-1.08,6.41-2.12,12.54-3.16,18.67l-.56,0-3.16-18.64-6.88,4.14a15.25,15.25,0,0,1,2-5.56c.76-1.6.58-2.27-1.19-2.81-3.76-1.14-7.45-2.52-12-4.07,4.48-1.53,8.18-2.86,11.94-4,1.61-.51,2.17-1.09,1.25-2.77a61.6,61.6,0,0,1-2.44-5.83c1.25.7,1.86,1,2.45,1.38,5,3,5,3,5.93-2.87C41.17,257.82,41.82,254,42.57,249.4Z"/><path class="cls-1" d="M284.77,436.32l.12.75-.69-.22Z"/></svg>